<?xml version="1.0" standalone="no"?>
<!DOCTYPE svg PUBLIC "-//W3C//DTD SVG 20010904//EN"
 "http://www.w3.org/TR/2001/REC-SVG-20010904/DTD/svg10.dtd">
<svg version="1.0" xmlns="http://www.w3.org/2000/svg"
 width="1024.000000pt" height="1024.000000pt" viewBox="0 0 1024.000000 1024.000000"
 preserveAspectRatio="xMidYMid meet">
<metadata>
Created by potrace 1.14, written by Peter Selinger 2001-2017
</metadata>
<g transform="translate(0.000000,1024.000000) scale(0.100000,-0.100000)"
fill="#000000" stroke="none">
<path d="M3325 9389 c-491 -77 -902 -283 -1241 -623 -193 -194 -323 -376 -437
-614 -87 -183 -170 -454 -192 -631 -2 -14 -7 -55 -12 -91 -4 -36 -7 -405 -6
-820 1 -415 1 -777 1 -805 -3 -321 1 -1430 6 -1525 11 -220 16 -323 22 -390 4
-61 6 -84 19 -212 7 -74 16 -149 20 -178 2 -14 7 -47 10 -75 3 -27 12 -90 21
-140 8 -49 17 -101 19 -115 4 -20 36 -177 50 -240 1 -8 8 -35 15 -60 7 -25 14
-52 15 -60 26 -124 139 -428 223 -598 85 -170 217 -380 296 -469 6 -6 29 -33
51 -59 141 -168 374 -359 577 -474 254 -144 582 -258 908 -315 47 -8 108 -17
135 -20 28 -4 57 -8 65 -10 8 -2 49 -7 90 -10 41 -3 95 -8 120 -10 25 -3 122
-7 216 -11 l172 -5 0 150 1 151 -97 1 c-145 2 -350 13 -413 24 -13 2 -46 6
-74 10 -27 3 -75 10 -105 15 -30 5 -72 12 -93 16 -66 10 -268 61 -364 92 -174
57 -368 149 -518 247 -324 211 -593 542 -753 926 -50 122 -55 134 -57 139 -1
3 -20 61 -42 130 -36 109 -83 284 -97 360 -2 14 -9 46 -15 73 -6 26 -13 62
-16 80 -2 17 -7 43 -9 57 -8 41 -36 238 -41 288 -3 26 -7 65 -10 87 -2 22 -7
72 -10 110 l-5 70 21 -45 c12 -25 40 -83 62 -130 273 -565 707 -960 1292
-1178 92 -35 248 -84 305 -97 177 -40 285 -60 440 -80 14 -2 57 -7 95 -10 39
-4 86 -9 105 -11 19 -2 117 -6 217 -10 l182 -6 -1 151 -1 151 -106 1 c-123 0
-226 7 -416 25 -44 5 -255 37 -312 48 -12 3 -83 21 -158 41 -592 155 -1015
471 -1300 968 -65 113 -175 353 -175 380 0 8 -3 17 -7 21 -4 3 -8 12 -10 19
-1 7 -12 39 -23 72 -20 54 -57 178 -65 215 -2 8 -11 47 -20 85 -20 82 -20 84
-41 195 -9 47 -18 94 -20 105 -2 10 -6 35 -9 55 -17 122 -26 191 -30 230 -3
25 -7 59 -10 75 -8 53 -16 155 -12 155 2 0 17 -19 33 -42 16 -24 31 -45 34
-48 3 -3 17 -21 30 -40 13 -19 29 -40 35 -46 5 -6 21 -25 35 -43 75 -97 141
-169 320 -350 240 -242 401 -360 666 -488 146 -70 269 -117 425 -161 110 -31
260 -68 319 -77 19 -3 49 -8 65 -11 17 -3 41 -7 55 -8 14 -2 45 -6 70 -10 159
-22 469 -41 607 -37 21 1 21 4 21 146 0 80 -3 146 -7 146 -3 1 -35 3 -71 4
-139 5 -347 16 -366 19 -10 2 -46 7 -79 10 -325 34 -642 121 -924 254 -76 35
-282 159 -301 181 -3 4 -31 26 -64 50 -105 78 -362 344 -509 527 -134 167
-260 384 -315 544 -35 104 -73 275 -88 395 -2 22 -6 56 -9 75 -14 116 -19 282
-20 655 0 435 3 492 30 635 90 477 347 884 750 1188 159 121 406 239 616 296
77 21 244 56 268 56 3 0 -45 -35 -105 -77 -60 -42 -114 -82 -120 -87 -6 -6
-33 -29 -60 -51 -53 -44 -165 -155 -231 -228 -245 -275 -453 -704 -507 -1047
-3 -19 -8 -46 -11 -60 -30 -149 -28 -539 6 -713 5 -29 12 -64 14 -80 6 -31 37
-147 65 -241 15 -49 92 -231 132 -311 29 -58 148 -253 174 -285 7 -8 39 -49
72 -90 164 -207 418 -418 663 -553 222 -123 552 -228 792 -252 37 -4 67 -10
67 -14 0 -3 68 -6 151 -6 l151 0 -6 180 c-3 99 -9 227 -13 285 -9 142 -10 562
-1 630 28 202 87 346 191 457 160 171 412 265 827 309 190 20 622 7 710 -21
11 -4 32 -8 47 -11 109 -19 317 -93 462 -164 135 -66 398 -239 471 -310 9 -8
34 -30 55 -48 90 -75 272 -264 356 -369 149 -185 277 -382 383 -588 52 -101
126 -259 126 -270 0 -10 -94 48 -124 77 -17 15 -33 28 -38 28 -4 0 -29 15 -55
33 -72 48 -81 53 -178 101 -150 73 -348 135 -484 151 -30 4 -63 9 -75 11 -30
6 -308 6 -337 0 -13 -3 -46 -8 -73 -11 -58 -7 -166 -30 -216 -45 -19 -6 -42
-13 -50 -15 -40 -9 -164 -61 -252 -105 -126 -63 -204 -115 -337 -225 -13 -11
-59 -56 -102 -100 -409 -420 -568 -1013 -420 -1565 32 -120 69 -208 173 -415
102 -203 291 -382 470 -445 l53 -18 5 -854 5 -853 790 1 c435 0 817 3 850 7
304 36 581 206 762 467 56 81 121 229 151 344 l27 101 0 1140 c0 627 -3 1181
-8 1230 -7 90 -23 220 -32 265 -3 13 -7 42 -10 65 -7 47 -51 246 -64 290 -61
203 -92 294 -147 430 -294 724 -812 1347 -1408 1689 -219 127 -511 236 -731
275 -33 6 -71 13 -84 16 -147 28 -592 25 -820 -6 -300 -41 -534 -118 -718
-235 -88 -57 -177 -141 -243 -229 -88 -116 -161 -295 -186 -450 -2 -16 -7 -40
-9 -51 -13 -60 -19 -180 -19 -369 0 -220 11 -472 21 -488 15 -24 -245 27 -407
79 -108 34 -326 137 -415 195 -453 294 -755 739 -854 1259 -38 195 -44 422
-16 605 3 17 7 48 11 70 33 226 143 505 280 711 144 217 291 368 529 542 116
85 443 237 502 234 30 -2 193 -77 283 -131 137 -81 300 -219 390 -330 19 -24
40 -48 46 -55 20 -21 91 -132 130 -201 117 -208 188 -463 195 -702 l2 -51 150
0 149 0 -6 106 c-33 550 -300 1048 -740 1379 l-101 76 75 -6 c284 -24 579
-133 790 -294 46 -35 158 -130 180 -153 37 -39 113 -124 130 -146 161 -205
287 -498 316 -734 3 -25 7 -58 9 -75 2 -16 4 -58 4 -92 l1 -61 151 0 152 -1
-7 111 c-4 62 -14 150 -22 197 -9 47 -18 100 -21 116 -12 71 -88 280 -143 392
-273 557 -777 923 -1415 1029 -22 4 -308 8 -635 10 -543 2 -605 1 -715 -17z
m3991 -4223 c308 -49 546 -168 762 -379 232 -226 371 -517 407 -847 7 -64 7
-1141 0 -1148 -3 -3 -134 -6 -291 -6 l-285 0 291 -291 292 -292 -1 -178 c-1
-211 -5 -246 -37 -347 -81 -256 -287 -445 -555 -507 -75 -17 -130 -19 -720
-19 -481 0 -639 3 -640 11 0 7 -1 386 -1 843 l-1 831 -89 -1 c-101 -2 -173 13
-233 48 -193 114 -374 445 -423 776 -9 59 -8 292 2 355 77 506 430 929 911
1090 101 34 191 54 280 62 39 3 71 7 73 8 5 4 221 -4 258 -9z"/>
<path d="M6760 4134 c0 -2 661 -660 875 -872 19 -18 35 -29 37 -25 2 5 3 137
3 296 l-1 287 263 0 263 0 1 43 c0 38 0 220 -1 257 0 14 -82 15 -720 16 -396
0 -720 -1 -720 -2z"/>
<path d="M2844 7676 c-18 -13 -19 -28 -19 -193 0 -159 7 -275 20 -344 3 -13 8
-40 11 -59 35 -206 137 -472 259 -678 44 -74 164 -240 202 -280 10 -10 43 -45
74 -78 70 -74 178 -171 231 -206 43 -29 73 -27 93 8 5 10 27 44 48 76 20 31
37 61 37 67 0 5 3 11 8 13 6 2 148 223 215 333 7 11 33 51 58 90 77 117 82
130 61 153 -14 16 -34 21 -103 26 -280 19 -540 136 -754 338 -181 171 -309
404 -355 648 -18 92 -43 117 -86 86z"/>
<path d="M5318 2833 c-21 -5 -55 -74 -66 -134 -11 -56 -7 -184 6 -233 l11 -38
-37 8 c-20 5 -86 9 -147 9 -93 -1 -118 -4 -162 -24 -65 -29 -84 -67 -49 -100
42 -39 103 -55 221 -55 62 0 125 5 144 12 29 10 32 10 27 -5 -26 -67 -26 -246
1 -317 21 -58 65 -96 91 -80 9 6 28 32 42 60 23 44 25 61 25 169 0 66 -4 135
-9 153 l-9 32 29 -11 c16 -6 70 -13 119 -15 250 -10 364 116 155 171 -68 18
-177 19 -252 1 l-56 -13 14 41 c20 54 19 206 -1 272 -16 55 -49 105 -68 103
-7 -1 -20 -3 -29 -6z"/>
<path d="M5301 1781 c-53 -53 -75 -277 -36 -374 6 -15 3 -17 -25 -12 -19 3
-37 8 -42 11 -17 11 -183 7 -226 -5 -62 -17 -104 -43 -113 -70 -28 -73 179
-130 346 -96 33 7 61 12 62 11 1 -1 -4 -26 -11 -56 -15 -65 -13 -199 5 -255
36 -115 95 -130 140 -37 27 58 38 224 20 298 -7 25 -10 48 -8 50 2 3 17 0 32
-6 39 -15 163 -19 227 -8 78 14 137 44 145 76 18 74 -182 131 -337 95 -74 -17
-73 -17 -65 15 14 54 15 68 16 142 1 177 -64 287 -130 221z"/>
</g>
</svg>
