<svg width="24" height="24" viewBox="0 0 24 24" fill="none" xmlns="http://www.w3.org/2000/svg">
<path d="M12 2C6.477 2 2 6.477 2 12C2 17.523 6.477 22 12 22C17.523 22 22 17.523 22 12C22 6.477 17.523 2 12 2Z" fill="white"/>
<path d="M13.3535 14.65H15.9415L16.348 12.021H13.3535V10.584C13.3535 9.49203 13.7105 8.52353 14.732 8.52353H16.3735V6.22953C16.085 6.19053 15.475 6.10553 14.3225 6.10553C11.9155 6.10553 10.5045 7.37653 10.5045 10.2725V12.0215H8.03003V14.6505H10.504V21.8765C10.994 21.9495 11.4905 21.9995 12 21.9995C12.4605 21.9995 12.91 21.9575 13.3535 21.8975V14.65Z" fill="#1877F2"/>
</svg>
