<svg width="18" height="19" viewBox="0 0 18 19" fill="none" xmlns="http://www.w3.org/2000/svg">
<path d="M11.8125 9.31979C11.8125 10.0657 11.5162 10.7811 10.9887 11.3085C10.4613 11.836 9.74592 12.1323 9 12.1323C8.25408 12.1323 7.53871 11.836 7.01126 11.3085C6.48382 10.7811 6.1875 10.0657 6.1875 9.31979C6.1875 8.57387 6.48382 7.8585 7.01126 7.33106C7.53871 6.80361 8.25408 6.50729 9 6.50729C9.74592 6.50729 10.4613 6.80361 10.9887 7.33106C11.5162 7.8585 11.8125 8.57387 11.8125 9.31979Z" fill="url(#paint0_linear_818_130)"/>
<path d="M0 9.31979C0 9.31979 3.375 3.13229 9 3.13229C14.625 3.13229 18 9.31979 18 9.31979C18 9.31979 14.625 15.5073 9 15.5073C3.375 15.5073 0 9.31979 0 9.31979ZM9 13.2573C10.0443 13.2573 11.0458 12.8425 11.7842 12.104C12.5227 11.3656 12.9375 10.3641 12.9375 9.31979C12.9375 8.2755 12.5227 7.27399 11.7842 6.53556C11.0458 5.79714 10.0443 5.38229 9 5.38229C7.95571 5.38229 6.95419 5.79714 6.21577 6.53556C5.47734 7.27399 5.0625 8.2755 5.0625 9.31979C5.0625 10.3641 5.47734 11.3656 6.21577 12.104C6.95419 12.8425 7.95571 13.2573 9 13.2573Z" fill="url(#paint1_linear_818_130)"/>
<defs>
<linearGradient id="paint0_linear_818_130" x1="9" y1="6.50729" x2="9" y2="12.1323" gradientUnits="userSpaceOnUse">
<stop stop-color="#292739"/>
<stop offset="1"/>
</linearGradient>
<linearGradient id="paint1_linear_818_130" x1="9" y1="3.13229" x2="9" y2="15.5073" gradientUnits="userSpaceOnUse">
<stop stop-color="#292739"/>
<stop offset="1"/>
</linearGradient>
</defs>
</svg>
